<?xml version="1.0" encoding="UTF-8" standalone="no"?><!DOCTYPE svg PUBLIC "-//W3C//DTD SVG 1.1//EN" "http://www.w3.org/Graphics/SVG/1.1/DTD/svg11.dtd"><svg width="100%" height="100%" viewBox="0 0 500 300" version="1.1" xmlns="http://www.w3.org/2000/svg" xmlns:xlink="http://www.w3.org/1999/xlink" xml:space="preserve" xmlns:serif="http://www.serif.com/" style="fill-rule:evenodd;clip-rule:evenodd;stroke-linejoin:round;stroke-miterlimit:2;"><g id="Layer-3" serif:id="Layer 3"><g transform="matrix(1,0,0,1,0,-100)"><g transform="matrix(98.6971,0,0,98.6971,267.725,239.912)"><path d="M0.044,0.046l-0,-0.656l0.5,0.354l-0,-0.352l0.154,-0l0,0.659l-0.5,-0.36l0,0.355l-0.154,-0Z" style="fill:#d45f00;fill-rule:nonzero;"/></g><g transform="matrix(98.6971,0,0,98.6971,340.958,239.912)"><path d="M0.698,-0.608l0,0.154l-0.5,-0l0,0.096l0.5,-0l0,0.154l-0.5,-0l0,0.096l0.5,-0l0,0.154l-0.654,-0l-0,-0.654l0.654,-0Z" style="fill:#d45f00;fill-rule:nonzero;"/></g><g transform="matrix(98.6971,0,0,98.6971,266.442,312.257)"><path d="M0.198,-0.608l0,0.5l0.346,-0l-0,-0.5l0.154,-0l0,0.654l-0.654,-0l-0,-0.654l0.154,-0Z" style="fill:#2a9fff;fill-rule:nonzero;"/></g><g transform="matrix(98.6971,0,0,98.6971,339.66,312.257)"><path d="M0.713,0.046l-0.669,-0l0.375,-0.5l-0.36,-0l-0,-0.154l0.669,-0l-0.375,0.5l0.36,-0l-0,0.154Z" style="fill:#2a9fff;fill-rule:nonzero;"/></g><g transform="matrix(98.6971,0,0,98.6971,415.77,312.257)"><path d="M0.713,0.046l-0.669,-0l0.375,-0.5l-0.36,-0l-0,-0.154l0.669,-0l-0.375,0.5l0.36,-0l-0,0.154Z" style="fill:#2a9fff;fill-rule:nonzero;"/></g></g><path d="M135.102,285.821l-0,-133.752c-0,-0.902 0.474,-1.738 1.248,-2.201l81.741,-48.925c1.655,-0.991 1.666,-6.118 0.02,-7.123l-79.676,-48.691c-0.802,-0.491 -1.809,-0.503 -2.623,-0.032l-86.696,50.193c-0.793,0.459 -1.28,1.305 -1.28,2.22l-0,95.718c-0,0.927 0.499,1.782 1.307,2.236l72.583,40.828c0.808,0.454 1.307,1.309 1.307,2.235l-0,41.033c-0,1.979 -2.147,3.213 -3.857,2.215l-107.667,-62.805c-0.788,-0.46 -1.272,-1.303 -1.272,-2.216l-0,-138.013c-0,-0.931 0.505,-1.79 1.319,-2.242l124.318,-69.066c0.782,-0.434 1.733,-0.43 2.511,0.011l119.268,67.621c0.803,0.456 1.3,1.308 1.3,2.232l-0,37.323l0.371,102.163c0.003,0.897 -0.462,1.73 -1.227,2.198l-79.462,48.56c-1.71,1.045 -3.903,-0.185 -3.903,-2.189l-0,-12.773c-0,-0.901 0.473,-1.736 1.245,-2.2l67.998,-40.798c0.778,-0.467 1.251,-1.31 1.245,-2.217l-0.53,-79.589c-0.013,-1.99 -2.189,-3.207 -3.892,-2.178l-74.228,44.884c-0.768,0.464 -1.238,1.297 -1.238,2.195l-0,20.564c-0,2.01 2.206,5.972 3.915,4.915l57.968,-35.87c1.709,-1.057 1.182,0.172 1.182,2.181l-0,24.142c-0,0.884 -0.455,1.705 -1.204,2.174l-60.657,39.683c-0.749,0.469 -1.204,1.29 -1.204,2.174l-0,40.414c-0,0.965 -0.542,1.849 -1.402,2.286l-25.1,12.768c-1.706,0.868 -3.728,-0.371 -3.728,-2.286" style="fill:#d45f00;fill-rule:nonzero;"/><path d="M136.333,285.82l-0,-136.552c-0,-0.903 0.47,-1.739 1.239,-2.203l120.461,-72.104c0.797,0.456 1.291,1.308 1.291,2.232l-0,37.342l-91.742,55.888c-0.763,0.465 -1.229,1.298 -1.229,2.196l-0,20.575c-0,2.01 2.191,3.24 3.888,2.182l57.565,-35.887c1.697,-1.058 3.888,0.172 3.888,2.182l-0,26.888c-0,0.885 -0.452,1.706 -1.196,2.176l-62.949,39.701c-0.744,0.47 -1.196,1.292 -1.196,2.176l-0,40.434c-0,0.965 -0.538,1.849 -1.392,2.287l-24.926,12.774c-1.694,0.869 -3.702,-0.371 -3.702,-2.287" style="fill:#2a9fff;fill-rule:nonzero;"/></g></svg>